<?xml version="1.0" encoding="UTF-8" standalone="no"?>
<svg
   xmlns:dc="http://purl.org/dc/elements/1.1/"
   xmlns:cc="http://creativecommons.org/ns#"
   xmlns:rdf="http://www.w3.org/1999/02/22-rdf-syntax-ns#"
   xmlns:svg="http://www.w3.org/2000/svg"
   xmlns="http://www.w3.org/2000/svg"
   xmlns:sodipodi="http://sodipodi.sourceforge.net/DTD/sodipodi-0.dtd"
   xmlns:inkscape="http://www.inkscape.org/namespaces/inkscape"
   width="210mm"
   height="297mm"
   viewBox="0 0 210 297"
   version="1.1"
   id="svg1058"
   inkscape:version="1.0.2 (e86c870879, 2021-01-15)"
   sodipodi:docname="climatecorp.svg">
  <defs
     id="defs1052" />
  <sodipodi:namedview
     id="base"
     pagecolor="#ffffff"
     bordercolor="#666666"
     borderopacity="1.0"
     inkscape:pageopacity="0.0"
     inkscape:pageshadow="2"
     inkscape:zoom="0.35"
     inkscape:cx="400"
     inkscape:cy="560"
     inkscape:document-units="mm"
     inkscape:current-layer="layer1"
     inkscape:document-rotation="0"
     showgrid="false"
     inkscape:window-width="1600"
     inkscape:window-height="843"
     inkscape:window-x="0"
     inkscape:window-y="0"
     inkscape:window-maximized="1" />
  <metadata
     id="metadata1055">
    <rdf:RDF>
      <cc:Work
         rdf:about="">
        <dc:format>image/svg+xml</dc:format>
        <dc:type
           rdf:resource="http://purl.org/dc/dcmitype/StillImage" />
        <dc:title />
      </cc:Work>
    </rdf:RDF>
  </metadata>
  <g
     inkscape:label="Layer 1"
     inkscape:groupmode="layer"
     id="layer1">
    <g
       id="g856"
       transform="matrix(5.808,0,0,5.808,-520.03022,-499.71136)">
      <g
         id="g849">
        <path
           class="st0"
           d="m 110.19505,125.82449 c -0.68792,0.10584 -1.40229,0.15875 -2.11667,0.15875 -5.23875,0 -9.816041,-2.8575 -12.250201,-7.11729 -0.58209,-0.26458 -1.13771,-0.58208 -1.64042,-0.9525 -0.89958,-0.635 -1.66688,-1.42875 -2.35479,-2.35479 1.69333,7.40833 8.334371,12.96459 16.245411,12.96459 0.92605,0 1.77271,-0.0529 2.6723,-0.21167 -0.0265,-0.89958 -0.42334,-2.24896 -0.55563,-2.48709"
           id="path46"
           style="fill:#fdb913;stroke-width:0.264583" />
        <path
           class="st0"
           d="m 108.10484,95.185745 c -0.9525,0 -1.85208,0.07937 -2.75166,0.238125 0.0265,0.661458 0.29104,1.666874 0.66145,2.460624 0.68792,-0.105833 1.34938,-0.15875 2.09021,-0.15875 5.26521,0 9.86896,2.883956 12.27667,7.170206 0.55562,0.26459 1.11125,0.55563 1.61396,0.92604 0.89958,0.66146 1.69333,1.45521 2.35479,2.38125 -1.66688,-7.43479 -8.30792,-13.017495 -16.24542,-13.017495"
           id="path48"
           style="fill:#fdb913;stroke-width:0.264583" />
        <path
           class="st1"
           d="m 109.58651,109.12929 c -0.71438,0.74083 -1.37583,1.50812 -2.06375,2.24895 l -2.01083,2.24896 c -0.34396,0.37042 -0.66146,0.74084 -1.00542,1.08479 -0.34396,0.34396 -0.68792,0.66146 -1.05833,0.92605 -0.74084,0.55562 -1.56105,0.97895 -2.46063,1.16416 -0.87312,0.18521 -1.825621,0.21167 -2.725211,0.0265 -1.79916,-0.34396 -3.36021,-1.56104 -4.39208,-3.09562 -0.26458,-0.39688 -0.50271,-0.82021 -0.71438,-1.24354 0.1323,-0.10584 0.23813,-0.23813 0.21167,-0.3175 -0.0265,-0.1323 -0.21167,-0.18521 -0.39687,-0.10584 -0.10584,-0.26458 -0.21167,-0.50271 -0.29105,-0.76729 0.0265,0 0.0529,-0.0265 0.0794,-0.0265 0.26458,-0.10583 0.44979,-0.29104 0.42333,-0.44979 -0.0265,-0.15875 -0.26458,-0.21167 -0.50271,-0.10583 -0.0529,0.0265 -0.10583,0.0529 -0.13229,0.0794 -0.0794,-0.26459 -0.13229,-0.52917 -0.18521,-0.79375 0.0794,0 0.1323,-0.0265 0.21167,-0.0529 0.26458,-0.10584 0.44979,-0.3175 0.44979,-0.50271 -0.0265,-0.15875 -0.26458,-0.23813 -0.52916,-0.13229 -0.0794,0.0265 -0.15875,0.0794 -0.23813,0.13229 -0.0529,-0.26459 -0.0794,-0.55563 -0.10583,-0.82021 0.0794,0 0.15875,-0.0265 0.23812,-0.0529 0.29104,-0.10583 0.47625,-0.34396 0.47625,-0.52917 -0.0265,-0.18521 -0.26458,-0.23812 -0.52916,-0.13229 -0.0794,0.0265 -0.15875,0.0794 -0.21167,0.13229 0,-0.26458 -0.0265,-0.50271 -0.0265,-0.76729 0.0529,0 0.10583,-0.0265 0.18521,-0.0529 0.29104,-0.10583 0.52917,-0.37042 0.50271,-0.58208 -0.0265,-0.21167 -0.26459,-0.26459 -0.55563,-0.15875 -0.0265,0.0265 -0.0794,0.0265 -0.10583,0.0529 0,-0.21167 0.0265,-0.44979 0.0529,-0.66146 0,0 0.0264,0 0.0264,0 0.3175,-0.13229 0.55563,-0.39687 0.52917,-0.60854 0,-0.18521 -0.21167,-0.26458 -0.44979,-0.21167 0.0265,-0.23812 0.0794,-0.44979 0.13229,-0.68791 0.18521,-0.1323 0.3175,-0.34396 0.29104,-0.50271 0,-0.10584 -0.0529,-0.15875 -0.13229,-0.21167 0.0794,-0.3175 0.18521,-0.60854 0.26458,-0.92604 0.18521,-0.55563 0.39688,-1.11125 0.635,-1.66688 0.10584,0.0529 0.26459,0.0529 0.4498,0 0.34395,-0.13229 0.60854,-0.44979 0.60854,-0.68791 0,-0.26459 -0.26459,-0.37042 -0.60854,-0.23813 0,0 -0.0265,0 -0.0265,0.0265 0.10583,-0.185205 0.18521,-0.396872 0.29104,-0.58208 0.23812,-0.15875 0.39687,-0.396875 0.39687,-0.608542 0,-0.05292 0,-0.07937 -0.0265,-0.105833 0.21166,-0.396875 0.44979,-0.79375 0.68791,-1.190625 0.10584,0.07937 0.29104,0.07937 0.50271,0 0.37042,-0.132292 0.66146,-0.449792 0.68792,-0.740833 0,-0.238125 -0.21167,-0.370417 -0.47625,-0.3175 0.50271,-0.767292 1.05833,-1.534584 1.61396,-2.248959 0.0265,0 0.0529,0 0.10583,-0.02646 0.39687,-0.132292 0.74083,-0.47625 0.74083,-0.79375 0,-0.07937 0,-0.15875 -0.0529,-0.211667 0.1852,-0.211666 0.34395,-0.449791 0.52916,-0.661458 0.0794,-0.07937 0.13229,-0.15875 0.21167,-0.264583 0.10583,0.02646 0.26458,0.02646 0.42333,-0.02646 0.42334,-0.132291 0.767291,-0.47625 0.793751,-0.820208 0,-0.15875 -0.0529,-0.291042 -0.18521,-0.343958 0.23813,-0.264584 0.47625,-0.529167 0.71438,-0.79375 0.13229,0.105833 0.34396,0.132291 0.58208,0.05292 0.21167,-0.05292 0.42334,-0.185208 0.58209,-0.343958 0.0264,0.132292 0.0264,0.264583 0.0529,0.396875 0.13229,0.926042 0.29104,1.825625 0.50271,2.725208 0,0.02646 0.0265,0.07937 0.0265,0.105834 -0.0794,0.105833 -0.10583,0.211666 -0.10583,0.3175 0,0.15875 0.10583,0.264583 0.26458,0.3175 0.0529,0.185208 0.0794,0.370416 0.13229,0.529166 -0.18521,0.132292 -0.29104,0.3175 -0.26458,0.47625 0.0265,0.211667 0.21166,0.343959 0.50271,0.343959 0.0265,0.132291 0.0794,0.264583 0.10583,0.423333 -0.29104,0.132292 -0.47625,0.370417 -0.44979,0.582083 0.0265,0.238125 0.34396,0.370417 0.71437,0.291042 0.0529,0.132292 0.0794,0.264583 0.13229,0.396875 -0.37041,0.105833 -0.635,0.370416 -0.58208,0.635 0.0529,0.238125 0.39688,0.370416 0.76729,0.264583 0.0265,0 0.0529,-0.02646 0.10584,-0.02646 0.0529,0.15875 0.10583,0.3175 0.15875,0.449791 -0.0529,0 -0.10584,0.02646 -0.15875,0.02646 -0.37042,0.105833 -0.635,0.370416 -0.58209,0.608541 0.0529,0.238125 0.39688,0.343959 0.76729,0.238125 0.10584,-0.02646 0.18521,-0.05292 0.26459,-0.105833 0.0794,0.185208 0.15875,0.396875 0.23812,0.582083 -0.10583,-0.02646 -0.23812,0 -0.37041,0.02646 -0.37042,0.105833 -0.60855,0.343959 -0.55563,0.582079 0.0529,0.21167 0.39688,0.3175 0.76729,0.23813 0.15875,-0.0529 0.3175,-0.13229 0.39688,-0.21167 0.10583,0.26459 0.21166,0.52917 0.34396,0.79375 -0.1323,-0.0794 -0.37042,-0.10583 -0.60855,-0.0529 -0.34395,0.0794 -0.58208,0.34396 -0.52916,0.52917 0.0529,0.21166 0.39687,0.29104 0.74083,0.21166 0.26458,-0.0794 0.44979,-0.21166 0.52917,-0.37041 0.3175,0.71437 0.66146,1.42875 1.03187,2.11666 0.42334,0.79375 0.74084,1.64042 0.92604,2.51355 0.15875,0.87312 0.18521,1.79916 -0.0794,2.69875 0.3175,-0.84667 0.37042,-1.79917 0.23812,-2.72521 -0.13229,-0.92604 -0.39687,-1.82563 -0.79375,-2.64584 -0.74083,-1.64041 -1.37583,-3.3602 -1.87854,-5.079995 -0.50271,-1.74625 -0.89958,-3.4925 -1.16416,-5.291666 -0.1323,-0.899584 -0.23813,-1.772709 -0.3175,-2.672292 -0.0794,-0.899583 -0.1323,-1.799167 -0.10584,-2.645833 v -1.613948 l -1.16399,1.11125 c -1.50813,1.42875 -2.857501,2.936875 -4.180421,4.497917 -1.29646,1.5875 -2.54,3.227917 -3.62479,4.974167 -1.08479,1.746249 -2.03729,3.59833 -2.72521,5.58271 -0.3175,1.00541 -0.58208,2.03729 -0.71438,3.09562 -0.10583,1.05834 -0.13229,2.11667 -0.0529,3.14854 0.15875,2.11667 0.76729,4.23334 1.98437,6.0325 0.60854,0.89959 1.34938,1.7198 2.24896,2.3548 0.89958,0.635 1.93146,1.11125 3.01625,1.32291 1.11125,0.21167 2.222501,0.18521 3.307291,-0.0529 1.08479,-0.23812 2.11667,-0.76729 2.98979,-1.40229 0.87313,-0.635 1.61396,-1.45521 2.27542,-2.19604 0,0 0.71438,-1.74625 1.42875,-3.06917 0.74083,-1.32291 1.61396,-2.38125 1.61396,-2.38125"
           id="path202"
           style="fill:#005daa;stroke-width:0.264583" />
      </g>
      <path
         class="st2"
         d="m 125.46151,115.26762 c -0.15875,-2.11667 -0.76729,-4.23333 -1.98438,-6.0325 -0.60854,-0.89958 -1.34937,-1.71979 -2.24895,-2.35479 -0.89959,-0.635 -1.93146,-1.11125 -3.01625,-1.32292 -0.26459,-0.0529 -0.55563,-0.10583 -0.82021,-0.10583 -0.13229,0 -0.29104,-0.0265 -0.42334,-0.0265 h -0.1852 -0.21167 c -0.55563,0.0265 -1.11125,0.10583 -1.66688,0.23812 -1.05833,0.29104 -2.06375,0.76729 -2.93687,1.37584 -0.21167,0.15875 -0.44979,0.3175 -0.66146,0.47625 -0.10583,0.0794 -0.21167,0.15875 -0.3175,0.26458 -0.10583,0.0794 -0.21167,0.18521 -0.29104,0.26458 -0.39688,0.37042 -0.74083,0.71438 -1.11125,1.08479 0,0 -0.87313,1.05834 -1.61396,2.38125 -0.74083,1.32292 -1.42875,3.06917 -1.42875,3.06917 l 2.01083,-2.24896 c 0.66146,-0.74083 1.34938,-1.50812 2.0373,-2.2225 0.34395,-0.37041 0.68791,-0.71437 1.03187,-1.03187 l 0.26458,-0.23813 c 0.0794,-0.0794 0.18521,-0.15875 0.26459,-0.21166 0.15875,-0.10584 0.29104,-0.23813 0.44979,-0.34396 0.0265,1.16416 -0.0265,3.30729 -0.47625,6.13833 -0.37042,2.30188 -0.97896,4.63021 -1.71979,6.82625 0,0 0,-0.0265 0,-0.0265 -0.37042,-0.76729 -0.76729,-1.50812 -1.11125,-2.27541 -0.50271,-1.11125 -0.66146,-2.93688 -0.635,-4.02167 -0.15875,0.76729 -0.0794,2.80458 0.37041,4.10104 0.29105,0.82021 0.66146,1.5875 0.97896,2.35479 0.66146,1.56104 1.19063,3.175 1.64042,4.78896 0.44979,1.61396 0.76729,3.28084 1.00542,4.94771 0.10583,0.82021 0.21166,1.66688 0.26458,2.48709 0.0529,0.82021 0.10583,1.69333 0.0794,2.48708 l -0.0265,1.56104 1.19062,-1.05833 c 1.50813,-1.42875 2.8575,-2.93688 4.18042,-4.49792 1.29646,-1.5875 2.54,-3.22791 3.62479,-4.97417 1.08479,-1.74625 2.03729,-3.59833 2.72521,-5.58271 0.3175,-1.00541 0.58208,-2.01083 0.71437,-3.09562 0.13229,-1.05834 0.15875,-2.11667 0.0529,-3.175 m -12.85875,11.45645 c -0.0794,-0.26458 -0.15875,-0.52916 -0.26458,-0.76729 -0.34396,-1.05833 -0.7673,-2.09021 -1.19063,-3.09562 l -0.39687,-0.87313 c 0.89958,-2.38125 1.71979,-4.92125 2.24895,-7.40833 0.29105,-1.37583 0.50271,-2.75167 0.66146,-4.15396 0.0794,-0.68791 0.13229,-1.40229 0.15875,-2.11666 0,-0.3175 0.0265,-0.55563 0.0265,-0.79375 0.15875,-0.0794 0.34396,-0.15875 0.58208,-0.26459 0.18521,-0.0794 0.47625,-0.15875 0.66146,-0.21166 0.10584,1.24354 0.15875,2.43416 0.15875,3.73062 0,1.98438 -0.10583,3.96875 -0.34396,5.95313 -0.37041,3.38666 -1.1377,6.74687 -2.30187,10.00124 m 1.56104,6.85272 c 0,-0.0529 0,-0.0794 -0.0265,-0.10583 -0.13229,-0.84667 -0.26458,-1.69334 -0.44979,-2.54 -0.15875,-0.79375 -0.37042,-1.5875 -0.55562,-2.38125 l -0.18521,-0.635 c 1.48166,-3.54543 2.48708,-7.27605 3.04271,-11.08605 0.29104,-2.01083 0.47625,-4.02167 0.52916,-6.05896 0.0265,-1.32292 0.0265,-2.64583 -0.0529,-3.96875 0.0794,0 0.15875,0 0.23812,-0.0265 0.37042,-0.0265 0.66146,0 0.66146,0 0.15875,0.0265 0.3175,0.0265 0.44979,0.0529 0.21167,2.19604 0.26458,4.36563 0.23813,6.61458 -0.0265,2.51355 -0.18521,5.00063 -0.50271,7.48771 -0.3175,2.48709 -0.79375,4.94771 -1.48167,7.35542 -0.47625,1.82563 -1.11125,3.59834 -1.905,5.29167 m 3.14854,-2.38125 c -0.71437,0.84667 -1.66687,1.85208 -2.30187,2.51354 0.79375,-1.64042 1.45521,-3.36021 2.01083,-5.10646 0.76729,-2.43417 1.29646,-4.94771 1.69333,-7.46125 0.37042,-2.51354 0.60855,-5.08 0.68792,-7.62 0.0794,-2.06375 0.0529,-4.1275 -0.0529,-6.21771 0.4498,0.21167 1.00542,0.60854 1.00542,0.60854 0.0529,0.0529 0.10583,0.0794 0.18521,0.13229 0.13229,0.74084 0.23812,1.48167 0.34396,2.24896 0.13229,1.08479 0.21166,2.14313 0.26458,3.22792 0.10583,2.16958 0.0265,4.33917 -0.18521,6.48229 -0.34396,3.28083 -0.9525,6.24417 -2.06375,9.28688 -0.58208,0.635 -1.05833,1.27 -1.5875,1.905 m 6.72042,-12.91167 c -0.10583,0.92604 -0.34396,1.87854 -0.635,2.80458 -0.60854,1.79917 -1.48167,3.51896 -2.48708,5.15938 l -0.55563,0.79375 c 0.66146,-2.19604 1.21708,-4.65667 1.50813,-6.90563 0.29104,-2.19604 0.42333,-4.445 0.39687,-6.6675 -0.0265,-1.11125 -0.0794,-2.2225 -0.18521,-3.33375 -0.0265,-0.15875 -0.0265,-0.3175 -0.0529,-0.47625 0.52916,0.68792 0.84666,1.29646 0.84666,1.29646 0.68792,1.34938 1.08479,2.91042 1.19063,4.445 0.10583,0.9525 0.0794,1.905 -0.0265,2.88396"
         id="path204"
         style="fill:#5e9732;stroke-width:0.264583" />
    </g>
  </g>
</svg>
